<?xml version="1.0" encoding="UTF-8" standalone="no"?>
<svg width="124px" height="24px" viewBox="0 0 124 24" version="1.1" xmlns="http://www.w3.org/2000/svg" xmlns:xlink="http://www.w3.org/1999/xlink">
    <!-- Generator: Sketch 39.1 (31720) - http://www.bohemiancoding.com/sketch -->
    <title>Slice 1</title>
    <desc>Created with Sketch.</desc>
    <defs></defs>
    <g id="Page-1" stroke="none" stroke-width="1" fill="none" fill-rule="evenodd">
        <path d="M9.136,0.376 C10.6293408,0.376 11.8826616,0.54666496 12.896,0.888 C13.9093384,1.22933504 14.7306635,1.70399696 15.36,2.312 C15.9893365,2.92000304 16.4426653,3.63999584 16.72,4.472 C16.9973347,5.30400416 17.136,6.1999952 17.136,7.16 C17.136,8.69600768 16.7520038,10.034661 15.984,11.176 C15.2159962,12.317339 13.9466755,13.1013312 12.176,13.528 L17.584,23 L14.992,23 L9.808,13.848 C9.65866592,13.8693334 9.48266768,13.88 9.28,13.88 L8.72,13.88 L3.056,13.88 L3.056,23 L0.72,23 L0.72,0.376 L9.136,0.376 Z M3.056,11.832 L8.976,11.832 C10.0853389,11.832 11.0133296,11.7253344 11.76,11.512 C12.5066704,11.2986656 13.1039978,10.9893354 13.552,10.584 C14.0000022,10.1786646 14.319999,9.68800288 14.512,9.112 C14.704001,8.53599712 14.8,7.89600352 14.8,7.192 C14.8,6.48799648 14.704001,5.83733632 14.512,5.24 C14.319999,4.64266368 14.0000022,4.13600208 13.552,3.72 C13.1039978,3.30399792 12.5066704,2.97866784 11.76,2.744 C11.0133296,2.50933216 10.0853389,2.392 8.976,2.392 L3.056,2.392 L3.056,11.832 Z M22.064,23 L22.064,0.376 L37.2,0.376 L37.2,2.424 L24.4,2.424 L24.4,10.456 L35.696,10.456 L35.696,12.472 L24.4,12.472 L24.4,20.952 L37.2,20.952 L37.2,23 L22.064,23 Z M45.424,21.784 C45.424,22.1893354 45.2960013,22.5466651 45.04,22.856 C44.7839987,23.1653349 44.4000026,23.32 43.888,23.32 C43.354664,23.32 42.9600013,23.1706682 42.704,22.872 C42.4479987,22.5733318 42.32,22.2106688 42.32,21.784 C42.32,21.3999981 42.4479987,21.0640014 42.704,20.776 C42.9600013,20.4879986 43.354664,20.344 43.888,20.344 C44.4000026,20.344 44.7839987,20.4879986 45.04,20.776 C45.2960013,21.0640014 45.424,21.3999981 45.424,21.784 L45.424,21.784 Z M45.424,8.696 C45.424,9.1226688 45.2960013,9.48533184 45.04,9.784 C44.7839987,10.0826682 44.4000026,10.232 43.888,10.232 C43.354664,10.232 42.9600013,10.0826682 42.704,9.784 C42.4479987,9.48533184 42.32,9.1226688 42.32,8.696 C42.32,8.31199808 42.4479987,7.97600144 42.704,7.688 C42.9600013,7.39999856 43.354664,7.256 43.888,7.256 C44.4000026,7.256 44.7839987,7.39999856 45.04,7.688 C45.2960013,7.97600144 45.424,8.31199808 45.424,8.696 L45.424,8.696 Z M51.12,0.376 L58.672,0.376 C60.5706762,0.376 62.18666,0.66399712 63.52,1.24 C64.85334,1.81600288 65.9413291,2.61599488 66.784,3.64 C67.6266709,4.66400512 68.2399981,5.86399312 68.624,7.24 C69.0080019,8.61600688 69.2,10.103992 69.2,11.704 C69.2,13.2826746 69.0080019,14.7599931 68.624,16.136 C68.2399981,17.5120069 67.6213376,18.7066616 66.768,19.72 C65.9146624,20.7333384 64.8266733,21.5333304 63.504,22.12 C62.1813267,22.7066696 60.5706762,23 58.672,23 L51.12,23 L51.12,0.376 Z M58.864,20.92 C60.3360074,20.92 61.5839949,20.690669 62.608,20.232 C63.6320051,19.773331 64.4586635,19.1333374 65.088,18.312 C65.7173365,17.4906626 66.1759986,16.5146723 66.464,15.384 C66.7520014,14.2533277 66.896,13.0160067 66.896,11.672 C66.896,10.3279933 66.7520014,9.09067232 66.464,7.96 C66.1759986,6.82932768 65.7120032,5.85333744 65.072,5.032 C64.4319968,4.21066256 63.6000051,3.57066896 62.576,3.112 C61.5519949,2.65333104 60.3040074,2.424 58.832,2.424 L53.456,2.424 L53.456,20.92 L58.864,20.92 Z M83.408,23.32 C81.807992,23.32 80.3680064,23.0586693 79.088,22.536 C77.8079936,22.0133307 76.7253378,21.256005 75.84,20.264 C74.9546622,19.271995 74.2773357,18.0560072 73.808,16.616 C73.3386643,15.1759928 73.104,13.5493424 73.104,11.736 C73.104,9.87999072 73.3386643,8.2320072 73.808,6.792 C74.2773357,5.3519928 74.9599955,4.13067168 75.856,3.128 C76.7520045,2.12532832 77.8399936,1.36266928 79.12,0.84 C80.4000064,0.31733072 81.8506586,0.056 83.472,0.056 C85.072008,0.056 86.5119936,0.31733072 87.792,0.84 C89.0720064,1.36266928 90.1599955,2.11999504 91.056,3.112 C91.9520045,4.10400496 92.6346643,5.31465952 93.104,6.744 C93.5733357,8.17334048 93.808,9.80532416 93.808,11.64 C93.808,13.4746758 93.5733357,15.1173261 93.104,16.568 C92.6346643,18.0186739 91.9520045,19.2453283 91.056,20.248 C90.1599955,21.2506717 89.0666731,22.0133307 87.776,22.536 C86.4853269,23.0586693 85.0293414,23.32 83.408,23.32 L83.408,23.32 Z M83.472,21.272 C85.9893459,21.272 87.951993,20.4400083 89.36,18.776 C90.768007,17.1119917 91.472,14.7440154 91.472,11.672 C91.472,8.59998464 90.768007,6.2373416 89.36,4.584 C87.951993,2.9306584 85.9893459,2.104 83.472,2.104 C80.9333206,2.104 78.9546738,2.93599168 77.536,4.6 C76.1173262,6.26400832 75.408,8.62131808 75.408,11.672 C75.408,14.7440154 76.1226595,17.1119917 77.552,18.776 C78.9813405,20.4400083 80.9546541,21.272 83.472,21.272 L83.472,21.272 Z M102.256,0.376 L109.552,15.448 L116.912,0.376 L119.408,0.376 L121.36,23 L119.024,23 L117.552,6.488 L117.488,4.024 L110.448,18.232 L108.688,18.232 L101.68,4.056 L101.584,6.488 L100.112,23 L97.776,23 L99.76,0.376 L102.256,0.376 Z" id="RE:DOM" fill="#222222"></path>
    </g>
</svg>