<svg width="141" height="129" xmlns="http://www.w3.org/2000/svg"><g fill-rule="nonzero" fill="none"><path d="M125 75l12.5 25h-25L125 75zm0-50l12.5 25h-25L125 25zm-25 50l12.5 25h-25L100 75zm12.5-25L125 75h-25l12.5-25zm-100 0L25 75H0l12.5-25zm25-50L50 25H25L37.5 0zm-25 0L25 25H0L12.5 0zM25 25l12.5 25h-25L25 25zm25 50l12.5 25h-25L50 75zm12.5-25L75 75H50l12.5-25zM75 25l12.5 25h-25L75 25zm12.5 25L100 75H75l12.5-25z" fill="#E8DC64"/><path d="M25 75l12.5-25h-25L25 75zm25-50L62.5 0h-25L50 25zm-25 0L37.5 0h-25L25 25zm12.5 25L50 25H25l12.5 25zm-25 0L25 25H0l12.5 25zm50 50L75 75H50l12.5 25zM100 75l12.5-25h-25L100 75zm12.5 25L125 75h-25l12.5 25zM125 75l12.5-25h-25L125 75zm0-50l12.5-25h-25L125 25zM12.5 100L25 75H0l12.5 25zm75-50L100 25H75l12.5 25z" fill="#FDF06F"/><path d="M25 75l12.5 25h-25L25 75zm50 0l12.5 25h-25L75 75zM37.5 50L50 75H25l12.5-25zM50 25l12.5 25h-25L50 25zM87.5 0L100 25H75L87.5 0zm25 0L125 25h-25l12.5-25zM100 25l12.5 25h-25L100 25zM62.5 0L75 25H50L62.5 0zm25 50L100 75H75l12.5-25z" fill="#BA152B"/><path d="M100 25l12.5-25h-25L100 25zm-62.5 75L50 75H25l12.5 25zM50 75l12.5-25h-25L50 75zm25-50L87.5 0h-25L75 25zm12.5 75L100 75H75l12.5 25zm25-50L125 25h-25l12.5 25zM75 75l12.5-25h-25L75 75zM62.5 50L75 25H50l12.5 25z" fill="#D31B33"/><path d="M21.781 104.669c1.76 0 3.217.187 4.373.561 1.155.374 2.073.902 2.755 1.584a5.625 5.625 0 0 1 1.436 2.409c.275.924.412 1.947.412 3.069 0 1.54-.324 2.915-.974 4.125-.649 1.21-1.765 2.123-3.349 2.739L31.252 128h-5.643l-4.323-8.085h-3.828V128h-5.214v-23.331h9.537zm-4.323 11.121h3.762c.858 0 1.562-.077 2.112-.231.55-.154.99-.38 1.32-.677.33-.297.561-.66.693-1.089a4.99 4.99 0 0 0 .198-1.468 4.87 4.87 0 0 0-.198-1.436 2.274 2.274 0 0 0-.693-1.072c-.33-.286-.77-.506-1.32-.66-.55-.154-1.254-.231-2.112-.231h-3.762v6.864zM34.915 128v-23.331h16.566v4.29H40.129v5.115h9.834v4.323h-9.834v5.28h11.352V128H34.915zm26.532-6.409c0 .792-.225 1.452-.677 1.98-.45.528-1.193.792-2.227.792-1.034 0-1.771-.258-2.211-.775-.44-.518-.66-1.183-.66-1.997 0-.77.22-1.413.66-1.93.44-.518 1.177-.776 2.211-.776 1.034 0 1.776.258 2.227.775.452.518.677 1.161.677 1.931zm0-9.715c0 .792-.225 1.452-.677 1.98-.45.528-1.193.792-2.227.792-1.034 0-1.771-.253-2.211-.759-.44-.506-.66-1.177-.66-2.013 0-.77.22-1.413.66-1.93.44-.518 1.177-.776 2.211-.776 1.034 0 1.776.258 2.227.775.452.518.677 1.161.677 1.931zm4.521-7.207h8.481c2.222 0 4.07.302 5.544.907 1.474.606 2.651 1.436 3.531 2.492.88 1.056 1.507 2.293 1.881 3.713.374 1.419.561 2.953.561 4.603 0 1.606-.192 3.113-.578 4.521-.385 1.408-1.022 2.64-1.913 3.696-.892 1.056-2.074 1.886-3.548 2.492-1.474.605-3.3.907-5.478.907h-8.481v-23.331zm9.24 19.008c.99 0 1.837-.181 2.541-.545a4.52 4.52 0 0 0 1.716-1.534c.44-.66.764-1.435.974-2.326.209-.892.313-1.865.313-2.921 0-1.056-.099-2.035-.297-2.937-.198-.902-.517-1.683-.957-2.343a4.62 4.62 0 0 0-1.733-1.551c-.715-.374-1.589-.561-2.623-.561h-3.96v14.718h4.026zm24.684 4.686c-1.804 0-3.388-.286-4.752-.858-1.364-.572-2.508-1.375-3.432-2.409-.924-1.034-1.622-2.282-2.096-3.746-.473-1.463-.709-3.096-.709-4.9 0-1.848.242-3.52.726-5.016s1.199-2.772 2.145-3.828 2.117-1.87 3.514-2.442c1.398-.572 2.998-.858 4.802-.858 1.804 0 3.393.28 4.769.841 1.375.562 2.53 1.364 3.465 2.41.935 1.045 1.644 2.298 2.128 3.761.484 1.464.726 3.097.726 4.901 0 1.804-.242 3.454-.726 4.95s-1.204 2.777-2.162 3.844c-.957 1.068-2.133 1.892-3.53 2.475-1.398.584-3.02.875-4.868.875zm.198-4.29c1.848 0 3.289-.649 4.323-1.947 1.034-1.298 1.551-3.245 1.551-5.841 0-2.552-.511-4.471-1.534-5.758-1.024-1.288-2.47-1.931-4.34-1.931-1.914 0-3.388.654-4.422 1.963-1.034 1.31-1.551 3.229-1.551 5.759 0 2.574.528 4.51 1.584 5.808s2.519 1.947 4.389 1.947zm21.846-19.404l5.445 13.266 5.445-13.266h5.907L140.548 128h-5.247l-1.056-13.464-.033-2.442-5.016 11.748h-3.63l-4.983-11.715-.066 2.376L119.494 128h-5.28l1.815-23.331h5.907z" fill="#222"/></g></svg>
